<svg width="20" height="20" viewBox="0 0 20 20" fill="none" xmlns="http://www.w3.org/2000/svg">
<path d="M13.5 8.25049C14.9473 8.25049 16.125 7.07274 16.125 5.62549C16.125 4.17824 14.9473 3.00049 13.5 3.00049C12.0527 3.00049 10.875 4.17824 10.875 5.62549C10.875 5.82149 10.9004 6.01049 10.9406 6.19424L8.124 7.95386C7.676 7.59774 7.116 7.37549 6.5 7.37549C5.05275 7.37549 3.875 8.55324 3.875 10.0005C3.875 11.4477 5.05275 12.6255 6.5 12.6255C7.116 12.6255 7.676 12.4032 8.124 12.0471L10.9406 13.8076C10.9004 13.9905 10.875 14.1795 10.875 14.3755C10.875 15.8227 12.0527 17.0005 13.5 17.0005C14.9473 17.0005 16.125 15.8227 16.125 14.3755C16.125 12.9282 14.9473 11.7505 13.5 11.7505C12.884 11.7505 12.3249 11.9727 11.876 12.3289L9.05938 10.5684C9.09963 10.3855 9.125 10.1956 9.125 10.0005C9.125 9.80449 9.09963 9.61549 9.05938 9.43261L11.8769 7.67211C12.3249 8.02824 12.884 8.25049 13.5 8.25049ZM13.5 4.75049C13.9821 4.75049 14.375 5.14249 14.375 5.62549C14.375 6.10849 13.9821 6.50049 13.5 6.50049C13.0179 6.50049 12.625 6.10849 12.625 5.62549C12.625 5.14249 13.0179 4.75049 13.5 4.75049ZM6.5 10.8755C6.01787 10.8755 5.625 10.4835 5.625 10.0005C5.625 9.51749 6.01787 9.12549 6.5 9.12549C6.98213 9.12549 7.375 9.51749 7.375 10.0005C7.375 10.4835 6.98213 10.8755 6.5 10.8755ZM13.5 13.5005C13.9821 13.5005 14.375 13.8925 14.375 14.3755C14.375 14.8585 13.9821 15.2505 13.5 15.2505C13.0179 15.2505 12.625 14.8585 12.625 14.3755C12.625 13.8925 13.0179 13.5005 13.5 13.5005Z" fill="#B1B2B3"/>
</svg>
