<svg width="10" height="12" viewBox="0 0 10 12" fill="none" xmlns="http://www.w3.org/2000/svg">
<path fill-rule="evenodd" clip-rule="evenodd" d="M0.861003 0.667114H8.52767C8.70448 0.667114 8.87405 0.737352 8.99907 0.862377C9.1241 0.987401 9.19434 1.15697 9.19434 1.33378C9.19434 1.51059 9.1241 1.68016 8.99907 1.80519C8.87405 1.93021 8.70448 2.00045 8.52767 2.00045H0.861003C0.684192 2.00045 0.514623 1.93021 0.389598 1.80519C0.264574 1.68016 0.194336 1.51059 0.194336 1.33378C0.194336 1.15697 0.264574 0.987401 0.389598 0.862377C0.514623 0.737352 0.684192 0.667114 0.861003 0.667114ZM0.861003 5.33378H8.52767C8.70448 5.33378 8.87405 5.40402 8.99907 5.52904C9.1241 5.65407 9.19434 5.82364 9.19434 6.00045C9.19434 6.17726 9.1241 6.34683 8.99907 6.47185C8.87405 6.59688 8.70448 6.66711 8.52767 6.66711H0.861003C0.684192 6.66711 0.514623 6.59688 0.389598 6.47185C0.264574 6.34683 0.194336 6.17726 0.194336 6.00045C0.194336 5.82364 0.264574 5.65407 0.389598 5.52904C0.514623 5.40402 0.684192 5.33378 0.861003 5.33378ZM0.861003 10.0004H8.52767C8.70448 10.0004 8.87405 10.0707 8.99907 10.1957C9.1241 10.3207 9.19434 10.4903 9.19434 10.6671C9.19434 10.8439 9.1241 11.0135 8.99907 11.1385C8.87405 11.2635 8.70448 11.3338 8.52767 11.3338H0.861003C0.684192 11.3338 0.514623 11.2635 0.389598 11.1385C0.264574 11.0135 0.194336 10.8439 0.194336 10.6671C0.194336 10.4903 0.264574 10.3207 0.389598 10.1957C0.514623 10.0707 0.684192 10.0004 0.861003 10.0004Z" fill="#B1B2B3"/>
</svg>
