<svg width="16" height="12" viewBox="0 0 16 12" fill="none" xmlns="http://www.w3.org/2000/svg">
<path d="M14.8831 5.38165H8.65232C8.48926 5.34904 8.31804 5.31643 8.13703 5.28381C7.87776 5.23653 7.77503 5.21696 7.63479 5.18924C6.79827 5.02617 6.29439 4.86311 5.89325 4.63155C5.32089 4.29727 5.04205 3.84395 5.04205 3.24386C5.04205 2.64052 5.28991 2.13991 5.75954 1.79258C6.22264 1.45014 6.88143 1.26914 7.66414 1.26914C8.55774 1.26914 9.24751 1.50395 9.71551 1.96706C9.95359 2.20187 10.1281 2.4905 10.2341 2.82478C10.2553 2.89164 10.2797 2.98785 10.3042 3.11504C10.3189 3.19331 10.389 3.24876 10.4656 3.24876H11.6527C11.744 3.24876 11.8174 3.17375 11.8174 3.08406V3.06775C11.806 2.95687 11.7962 2.87044 11.7848 2.80685C11.6658 2.09751 11.3282 1.4746 10.8113 1.00823C10.0873 0.347818 9.02248 0.000488281 7.73426 0.000488281C6.5553 0.000488281 5.49374 0.295637 4.74527 0.830492C4.32782 1.13053 4.00495 1.50232 3.78971 1.93445C3.56957 2.37635 3.45868 2.88675 3.45868 3.44933C3.45868 3.93037 3.55163 4.33803 3.74079 4.69678C3.87613 4.95279 4.06039 5.17782 4.29684 5.38165H0.533285C0.461536 5.38165 0.402832 5.44036 0.402832 5.51211V6.4905C0.402832 6.56225 0.461536 6.62095 0.533285 6.62095H7.59729C7.63153 6.62748 7.66088 6.634 7.6935 6.64052C8.19737 6.74162 8.50067 6.81011 8.77951 6.88838C9.15456 6.99437 9.44156 7.10526 9.67964 7.23897C10.2634 7.56836 10.5488 8.04125 10.5488 8.69026C10.5488 9.26588 10.296 9.77953 9.83781 10.1383C9.34046 10.528 8.60503 10.7318 7.7098 10.7318C6.99721 10.7318 6.39386 10.5932 5.91282 10.3242C5.4383 10.0584 5.11217 9.67517 4.93932 9.19087C4.92627 9.15499 4.9116 9.10607 4.89529 9.04411C4.87572 8.97236 4.80887 8.92181 4.73712 8.92181H3.43748C3.34617 8.92181 3.27279 8.99682 3.27279 9.0865V9.10281C3.27605 9.14032 3.27931 9.1713 3.28257 9.19576C3.38856 9.99152 3.77666 10.6438 4.43544 11.133C5.20348 11.7004 6.28461 12.0005 7.56304 12.0005C8.93606 12.0005 10.0873 11.6776 10.8928 11.0661C11.3005 10.7579 11.6136 10.378 11.8239 9.94097C12.0359 9.49906 12.1452 8.99682 12.1452 8.44892C12.1452 7.93037 12.0506 7.49662 11.8549 7.12156C11.7604 6.93893 11.6413 6.77097 11.4994 6.61932H14.8831C14.9548 6.61932 15.0135 6.56062 15.0135 6.48887V5.51048C15.0131 5.47616 14.9991 5.4434 14.9747 5.41928C14.9503 5.39517 14.9174 5.38165 14.8831 5.38165Z" fill="#B1B2B3"/>
</svg>
