<svg width="10" height="12" viewBox="0 0 10 12" fill="none" xmlns="http://www.w3.org/2000/svg">
<path d="M4.73682 9.33349C5.26211 9.33349 5.78226 9.23002 6.26756 9.02901C6.75286 8.82799 7.19382 8.53335 7.56525 8.16192C7.93669 7.79048 8.23132 7.34952 8.43234 6.86422C8.63336 6.37892 8.73682 5.85878 8.73682 5.33349V0.000488281H7.06982V5.33349C7.06982 5.95237 6.82397 6.54591 6.38636 6.98352C5.94874 7.42114 5.35521 7.66699 4.73632 7.66699C4.11744 7.66699 3.52391 7.42114 3.08629 6.98352C2.64867 6.54591 2.40282 5.95237 2.40282 5.33349V0.000488281H0.736824V5.33349C0.736824 6.39435 1.15825 7.41177 1.9084 8.16192C2.65854 8.91206 3.67596 9.33349 4.73682 9.33349ZM0.0698242 10.6675V12.0005H9.40282V10.6675H0.0698242Z" fill="#B1B2B3"/>
</svg>
