<svg width="13" height="12" viewBox="0 0 13 12" fill="none" xmlns="http://www.w3.org/2000/svg">
<path d="M1.023 11.2505C0.869477 11.2503 0.722292 11.1892 0.613788 11.0806C0.505284 10.972 0.444336 10.8248 0.444336 10.6712V1.32974C0.445403 1.17654 0.506694 1.02992 0.614968 0.921532C0.723242 0.813149 0.869808 0.75171 1.023 0.750488H11.5323C11.852 0.750488 12.111 1.01007 12.111 1.32974V10.6712C12.1099 10.8244 12.0486 10.9711 11.9404 11.0794C11.8321 11.1878 11.6855 11.2493 11.5323 11.2505H1.023ZM10.9443 7.75049V1.91715H1.611V10.0838L7.44434 4.25049L10.9443 7.75049ZM10.9443 9.40015L7.44434 5.90015L3.26067 10.0838H10.9443V9.40015ZM3.94434 5.41715C3.63492 5.41715 3.33817 5.29424 3.11938 5.07545C2.90059 4.85665 2.77767 4.55991 2.77767 4.25049C2.77767 3.94107 2.90059 3.64432 3.11938 3.42553C3.33817 3.20674 3.63492 3.08382 3.94434 3.08382C4.25376 3.08382 4.5505 3.20674 4.76929 3.42553C4.98809 3.64432 5.111 3.94107 5.111 4.25049C5.111 4.55991 4.98809 4.85665 4.76929 5.07545C4.5505 5.29424 4.25376 5.41715 3.94434 5.41715Z" fill="#B1B2B3"/>
</svg>
