<svg width="8" height="9" viewBox="0 0 8 9" fill="none" xmlns="http://www.w3.org/2000/svg">
<path d="M0.695663 8.18599C1.07441 8.35474 1.51691 8.18374 1.68566 7.80574L2.48816 6.00124H5.51366L6.31616 7.80574C6.44066 8.08549 6.71441 8.25124 7.00166 8.25124C7.10366 8.25124 7.20641 8.23024 7.30616 8.18599C7.68416 8.01799 7.85516 7.57474 7.68641 7.19599L6.69191 4.95874L4.68566 0.445988C4.56566 0.175238 4.29641 0.000488281 4.00016 0.000488281C3.70391 0.000488281 3.43541 0.175238 3.31466 0.445988L1.30916 4.95874L0.314663 7.19599C0.145913 7.57474 0.316913 8.01799 0.694913 8.18599H0.695663ZM4.00016 2.59699L4.84616 4.50049H3.15416L4.00016 2.59699Z" fill="#8B8B8B"/>
</svg>
