<svg width="7" height="5" viewBox="0 0 7 5" fill="none" xmlns="http://www.w3.org/2000/svg">
<path d="M3.50329 2.80085L6.14827 0.146539C6.19453 0.0998391 6.24958 0.0627688 6.31025 0.03747C6.37092 0.0121712 6.436 -0.000854492 6.50173 -0.000854492C6.56747 -0.000854492 6.63255 0.0121712 6.69322 0.03747C6.75388 0.0627688 6.80894 0.0998391 6.8552 0.146539C6.9483 0.240892 7.0005 0.368115 7.0005 0.50067C7.0005 0.633225 6.9483 0.760448 6.8552 0.854801L3.85676 3.85591C3.76583 3.9467 3.64337 3.99889 3.51491 4.00163C3.38644 4.00436 3.26188 3.95742 3.16717 3.87058L0.147386 0.857468C0.0534639 0.763724 0.000628948 0.636509 0.000504017 0.503809C0.000379086 0.371109 0.0529737 0.243795 0.146718 0.149874C0.240463 0.0559523 0.367678 0.00311752 0.500378 0.00299245C0.633078 0.00286738 0.760392 0.0554622 0.854313 0.149207L3.50329 2.80085Z" fill="#B1B2B3"/>
</svg>
