<svg width="10" height="12" viewBox="0 0 10 12" fill="none" xmlns="http://www.w3.org/2000/svg">
<path d="M1.00049 0.000488281H5.50049C5.96011 0.000488272 6.41524 0.0910184 6.83988 0.26691C7.26452 0.442801 7.65036 0.70061 7.97536 1.02561C8.30037 1.35062 8.55818 1.73646 8.73407 2.1611C8.90996 2.58574 9.00049 3.04086 9.00049 3.50049C9.00049 3.96011 8.90996 4.41524 8.73407 4.83988C8.55818 5.26452 8.30037 5.65036 7.97536 5.97536C7.65036 6.30037 7.26452 6.55818 6.83988 6.73407C6.41524 6.90996 5.96011 7.00049 5.50049 7.00049H1.00049C0.735272 7.00049 0.480918 6.89513 0.293382 6.70759C0.105845 6.52006 0.000488281 6.2657 0.000488281 6.00049V1.00049C0.000488281 0.735272 0.105845 0.480918 0.293382 0.293381C0.480918 0.105845 0.735272 0.000488281 1.00049 0.000488281ZM5.50049 5.00049C5.89831 5.00049 6.27984 4.84245 6.56115 4.56115C6.84245 4.27984 7.00049 3.89831 7.00049 3.50049C7.00049 3.10266 6.84245 2.72113 6.56115 2.43983C6.27984 2.15852 5.89831 2.00049 5.50049 2.00049H2.00049V5.00049H5.50049Z" fill="#B1B2B3"/>
<path d="M1.00049 5.00049H6.50049C7.42875 5.00049 8.31898 5.36924 8.97536 6.02561C9.63174 6.68199 10.0005 7.57223 10.0005 8.50049C10.0005 9.42875 9.63174 10.319 8.97536 10.9754C8.31898 11.6317 7.42875 12.0005 6.50049 12.0005H1.00049C0.735272 12.0005 0.480918 11.8951 0.293382 11.7076C0.105845 11.5201 0.000488281 11.2657 0.000488281 11.0005V6.00049C0.000488281 5.73527 0.105845 5.48092 0.293382 5.29338C0.480918 5.10585 0.735272 5.00049 1.00049 5.00049ZM6.50049 10.0005C6.89831 10.0005 7.27984 9.84245 7.56115 9.56115C7.84245 9.27984 8.00049 8.89831 8.00049 8.50049C8.00049 8.10266 7.84245 7.72113 7.56115 7.43983C7.27984 7.15852 6.89831 7.00049 6.50049 7.00049H2.00049V10.0005H6.50049Z" fill="#B1B2B3"/>
</svg>
