<svg width="12" height="12" viewBox="0 0 12 12" fill="none" xmlns="http://www.w3.org/2000/svg">
<path d="M5.94466 0.167114C9.16641 0.167114 11.778 2.7787 11.778 6.00045C11.778 9.2222 9.16641 11.8338 5.94466 11.8338C2.72291 11.8338 0.111328 9.2222 0.111328 6.00045C0.111328 2.7787 2.72291 0.167114 5.94466 0.167114ZM5.94466 1.33378C4.70698 1.33378 3.52 1.82545 2.64483 2.70062C1.76966 3.57579 1.27799 4.76277 1.27799 6.00045C1.27799 7.23812 1.76966 8.42511 2.64483 9.30028C3.52 10.1754 4.70698 10.6671 5.94466 10.6671C7.18234 10.6671 8.36932 10.1754 9.24449 9.30028C10.1197 8.42511 10.6113 7.23812 10.6113 6.00045C10.6113 4.76277 10.1197 3.57579 9.24449 2.70062C8.36932 1.82545 7.18234 1.33378 5.94466 1.33378ZM7.57799 7.0837C7.63242 7.0288 7.69721 6.98526 7.76861 6.95562C7.84 6.92597 7.91658 6.91082 7.99389 6.91103C8.07119 6.91125 8.14768 6.92682 8.21892 6.95686C8.29015 6.98689 8.3547 7.03079 8.40882 7.08599C8.46294 7.14119 8.50555 7.2066 8.53417 7.27841C8.56278 7.35023 8.57684 7.42701 8.57553 7.50431C8.57421 7.5816 8.55754 7.65786 8.52649 7.72866C8.49544 7.79945 8.45063 7.86337 8.39466 7.9167C7.74096 8.55881 6.86098 8.91814 5.94466 8.91711C5.02834 8.91814 4.14837 8.55881 3.49466 7.9167C3.38676 7.80785 3.32604 7.66091 3.32561 7.50764C3.32519 7.35437 3.3851 7.2071 3.4924 7.09766C3.5997 6.98821 3.74576 6.92539 3.899 6.92278C4.05225 6.92017 4.20036 6.97797 4.31133 7.0837C4.74697 7.51199 5.33374 7.75152 5.94466 7.75045C6.58049 7.75045 7.15624 7.4967 7.57799 7.0837ZM3.90299 3.66711C4.13506 3.66711 4.35762 3.7593 4.52171 3.9234C4.68581 4.08749 4.77799 4.31005 4.77799 4.54211C4.77799 4.77418 4.68581 4.99674 4.52171 5.16083C4.35762 5.32493 4.13506 5.41711 3.90299 5.41711C3.67093 5.41711 3.44837 5.32493 3.28428 5.16083C3.12018 4.99674 3.02799 4.77418 3.02799 4.54211C3.02799 4.31005 3.12018 4.08749 3.28428 3.9234C3.44837 3.7593 3.67093 3.66711 3.90299 3.66711ZM7.98633 3.66711C8.21839 3.66711 8.44095 3.7593 8.60505 3.9234C8.76914 4.08749 8.86133 4.31005 8.86133 4.54211C8.86133 4.77418 8.76914 4.99674 8.60505 5.16083C8.44095 5.32493 8.21839 5.41711 7.98633 5.41711C7.75426 5.41711 7.5317 5.32493 7.36761 5.16083C7.20352 4.99674 7.11133 4.77418 7.11133 4.54211C7.11133 4.31005 7.20352 4.08749 7.36761 3.9234C7.5317 3.7593 7.75426 3.66711 7.98633 3.66711Z" fill="#B1B2B3"/>
</svg>
