<svg width="13" height="14" viewBox="0 0 13 14" fill="none" xmlns="http://www.w3.org/2000/svg">
<path d="M6.12262 2.86615L7.21637 1.7724C7.50076 1.488 7.83839 1.26241 8.20996 1.1085C8.58154 0.954584 8.9798 0.875366 9.38199 0.875366C9.78419 0.875366 10.1824 0.954584 10.554 1.1085C10.9256 1.26241 11.2632 1.488 11.5476 1.7724C11.832 2.05679 12.0576 2.39442 12.2115 2.76599C12.3654 3.13757 12.4446 3.53583 12.4446 3.93802C12.4446 4.34022 12.3654 4.73847 12.2115 5.11005C12.0576 5.48163 11.832 5.81925 11.5476 6.10365L9.36012 8.29115C9.07573 8.57556 8.73811 8.80117 8.36653 8.95509C7.99495 9.10902 7.59669 9.18824 7.19449 9.18824C6.79229 9.18824 6.39403 9.10902 6.02245 8.95509C5.65087 8.80117 5.31325 8.57556 5.02887 8.29115C4.91301 8.16667 4.84992 8.00212 4.85286 7.8321C4.85579 7.66207 4.92453 7.4998 5.04462 7.3794C5.16502 7.25931 5.32729 7.19057 5.49732 7.18764C5.66734 7.1847 5.83189 7.24779 5.95637 7.36365C6.11878 7.52657 6.31174 7.65583 6.52421 7.74403C6.73667 7.83223 6.96445 7.87763 7.19449 7.87763C7.42453 7.87763 7.65231 7.83223 7.86478 7.74403C8.07724 7.65583 8.27021 7.52657 8.43262 7.36365L10.6201 5.17615C10.9325 4.84457 11.1034 4.40433 11.0967 3.94882C11.0899 3.49331 10.9059 3.05836 10.5838 2.73623C10.2617 2.4141 9.8267 2.23014 9.37119 2.22335C8.91568 2.21657 8.47545 2.3875 8.14387 2.6999L7.05012 3.79365C6.92564 3.90951 6.76109 3.9726 6.59107 3.96966C6.42104 3.96672 6.25877 3.89799 6.13837 3.7779C6.01828 3.65749 5.94954 3.49523 5.94661 3.3252C5.94367 3.15517 6.00676 2.99063 6.12262 2.86615ZM2.01887 11.3011C2.18128 11.4641 2.37424 11.5933 2.58671 11.6815C2.79917 11.7697 3.02695 11.8151 3.25699 11.8151C3.48703 11.8151 3.71481 11.7697 3.92728 11.6815C4.13974 11.5933 4.33271 11.4641 4.49512 11.3011L5.58887 10.2074C5.71335 10.0915 5.87789 10.0284 6.04792 10.0314C6.21795 10.0343 6.38021 10.1031 6.50062 10.2231C6.6207 10.3435 6.68944 10.5058 6.69238 10.6758C6.69531 10.8459 6.63223 11.0104 6.51637 11.1349L5.42262 12.2286C5.13822 12.513 4.8006 12.7386 4.42902 12.8925C4.05744 13.0465 3.65919 13.1257 3.25699 13.1257C2.44473 13.1257 1.66573 12.803 1.09137 12.2286C0.517008 11.6543 0.194336 10.8753 0.194336 10.063C0.194336 9.25076 0.517008 8.47176 1.09137 7.8974L3.27887 5.7099C3.56325 5.42549 3.90087 5.19988 4.27245 5.04595C4.64403 4.89203 5.04229 4.8128 5.44449 4.8128C5.84669 4.8128 6.24495 4.89203 6.61653 5.04595C6.98811 5.19988 7.32573 5.42549 7.61012 5.7099C7.72598 5.83438 7.78906 5.99892 7.78613 6.16895C7.78319 6.33898 7.71445 6.50124 7.59437 6.62165C7.47396 6.74174 7.3117 6.81047 7.14167 6.81341C6.97164 6.81635 6.8071 6.75326 6.68262 6.6374C6.52021 6.47448 6.32724 6.34522 6.11478 6.25702C5.90231 6.16882 5.67453 6.12342 5.44449 6.12342C5.21445 6.12342 4.98667 6.16882 4.77421 6.25702C4.56174 6.34522 4.36878 6.47448 4.20637 6.6374L2.01887 8.8249C1.85595 8.98731 1.72669 9.18027 1.63849 9.39274C1.55029 9.6052 1.50489 9.83298 1.50489 10.063C1.50489 10.2931 1.55029 10.5208 1.63849 10.7333C1.72669 10.9458 1.85595 11.1387 2.01887 11.3011Z" fill="#B1B2B3"/>
</svg>
