<svg width="13" height="12" viewBox="0 0 13 12" fill="none" xmlns="http://www.w3.org/2000/svg">
<path fill-rule="evenodd" clip-rule="evenodd" d="M4.01367 0.667155H11.6803C11.8571 0.667155 12.0267 0.737393 12.1517 0.862417C12.2768 0.987441 12.347 1.15701 12.347 1.33382C12.347 1.51063 12.2768 1.6802 12.1517 1.80523C12.0267 1.93025 11.8571 2.00049 11.6803 2.00049H4.01367C3.83686 2.00049 3.66729 1.93025 3.54227 1.80523C3.41724 1.6802 3.347 1.51063 3.347 1.33382C3.347 1.15701 3.41724 0.987441 3.54227 0.862417C3.66729 0.737393 3.83686 0.667155 4.01367 0.667155ZM4.01367 5.33382H11.6803C11.8571 5.33382 12.0267 5.40406 12.1517 5.52908C12.2768 5.65411 12.347 5.82368 12.347 6.00049C12.347 6.1773 12.2768 6.34687 12.1517 6.47189C12.0267 6.59692 11.8571 6.66716 11.6803 6.66716H4.01367C3.83686 6.66716 3.66729 6.59692 3.54227 6.47189C3.41724 6.34687 3.347 6.1773 3.347 6.00049C3.347 5.82368 3.41724 5.65411 3.54227 5.52908C3.66729 5.40406 3.83686 5.33382 4.01367 5.33382ZM4.01367 10.0005H11.6803C11.8571 10.0005 12.0267 10.0707 12.1517 10.1958C12.2768 10.3208 12.347 10.4903 12.347 10.6672C12.347 10.844 12.2768 11.0135 12.1517 11.1386C12.0267 11.2636 11.8571 11.3338 11.6803 11.3338H4.01367C3.83686 11.3338 3.66729 11.2636 3.54227 11.1386C3.41724 11.0135 3.347 10.844 3.347 10.6672C3.347 10.4903 3.41724 10.3208 3.54227 10.1958C3.66729 10.0707 3.83686 10.0005 4.01367 10.0005ZM0.347005 0.667155C0.2586 0.667155 0.173815 0.632036 0.111303 0.569524C0.0487909 0.507012 0.0136719 0.422227 0.0136719 0.333822C0.0136719 0.245416 0.0487909 0.160632 0.111303 0.0981194C0.173815 0.0356073 0.2586 0.000488281 0.347005 0.000488281H1.01367C1.20034 0.000488281 1.34701 0.147155 1.34701 0.333822V2.33382C1.34701 2.42223 1.31189 2.50701 1.24937 2.56952C1.18686 2.63204 1.10208 2.66716 1.01367 2.66716C0.925266 2.66716 0.840482 2.63204 0.77797 2.56952C0.715458 2.50701 0.680339 2.42223 0.680339 2.33382V0.677155L0.347005 0.667155ZM0.347005 4.66716H1.68034C1.867 4.66716 2.01367 4.81382 2.01367 5.00049V5.33382L0.880339 6.66716H1.68034C1.867 6.66716 2.01367 6.81382 2.01367 7.00049C2.01367 7.18715 1.86434 7.33382 1.68034 7.33382H0.347005C0.160339 7.33382 0.0136719 7.18715 0.0136719 7.00049V6.66716L1.147 5.33382H0.347005C0.160339 5.33382 0.0136719 5.18715 0.0136719 5.00049C0.0136719 4.81382 0.146339 4.66716 0.347005 4.66716ZM1.68034 12.0005H0.347005C0.2586 12.0005 0.173815 11.9654 0.111303 11.9029C0.0487909 11.8403 0.0136719 11.7556 0.0136719 11.6672C0.0136719 11.5787 0.0487909 11.494 0.111303 11.4315C0.173815 11.3689 0.2586 11.3338 0.347005 11.3338H1.34701V11.0005H0.347005C0.2586 11.0005 0.173815 10.9654 0.111303 10.9029C0.0487909 10.8403 0.0136719 10.7556 0.0136719 10.6672C0.0136719 10.5787 0.0487909 10.494 0.111303 10.4315C0.173815 10.3689 0.2586 10.3338 0.347005 10.3338H1.34701V10.0005H0.347005C0.2586 10.0005 0.173815 9.96537 0.111303 9.90286C0.0487909 9.84035 0.0136719 9.75556 0.0136719 9.66716C0.0136719 9.57875 0.0487909 9.49397 0.111303 9.43145C0.173815 9.36894 0.2586 9.33382 0.347005 9.33382H1.68034C1.76874 9.33382 1.85353 9.36894 1.91604 9.43145C1.97855 9.49397 2.01367 9.57875 2.01367 9.66716V11.6672C2.01367 11.7556 1.97855 11.8403 1.91604 11.9029C1.85353 11.9654 1.76874 12.0005 1.68034 12.0005Z" fill="#B1B2B3"/>
</svg>
