<svg width="10" height="10" viewBox="0 0 10 10" fill="none" xmlns="http://www.w3.org/2000/svg">
<path d="M6.934 3.06637C6.80007 2.93243 6.61841 2.85719 6.429 2.85719C6.23959 2.85719 6.05793 2.93243 5.924 3.06637C5.79007 3.2003 5.71482 3.38195 5.71482 3.57137C5.71482 3.76078 5.79007 3.94243 5.924 4.07637L7.562 5.71437H1.429V1.42937H8.572C8.7615 1.42937 8.94323 1.35409 9.07723 1.22009C9.21122 1.0861 9.2865 0.904363 9.2865 0.714866C9.2865 0.525369 9.21122 0.343633 9.07723 0.209638C8.94323 0.0756436 8.7615 0.000366211 8.572 0.000366211H1.429C1.05001 0.000366211 0.686534 0.150921 0.418544 0.418911C0.150555 0.6869 0 1.05037 0 1.42937V5.71437C0 6.09336 0.150555 6.45683 0.418544 6.72482C0.686534 6.99281 1.05001 7.14337 1.429 7.14337H7.562L5.924 8.78137C5.85768 8.84768 5.80508 8.92641 5.76919 9.01306C5.73329 9.09971 5.71482 9.19258 5.71482 9.28637C5.71482 9.38015 5.73329 9.47302 5.76919 9.55967C5.80508 9.64632 5.85768 9.72505 5.924 9.79137C5.99032 9.85768 6.06905 9.91029 6.1557 9.94618C6.24234 9.98207 6.33521 10.0005 6.429 10.0005C6.52279 10.0005 6.61566 9.98207 6.7023 9.94618C6.78895 9.91029 6.86768 9.85768 6.934 9.79137L9.791 6.93437C9.85734 6.86806 9.90996 6.78933 9.94587 6.70268C9.98177 6.61603 10.0003 6.52316 10.0003 6.42937C10.0003 6.33557 9.98177 6.2427 9.94587 6.15605C9.90996 6.0694 9.85734 5.99067 9.791 5.92437L6.934 3.06637Z" fill="#B1B2B3"/>
</svg>
