<svg width="10" height="10" viewBox="0 0 10 10" fill="none" xmlns="http://www.w3.org/2000/svg">
<path d="M8.57274 0.000366211H1.42974C1.24024 0.000366211 1.05851 0.0756436 0.924512 0.209638C0.790517 0.343633 0.71524 0.525369 0.71524 0.714866C0.71524 0.904363 0.790517 1.0861 0.924512 1.22009C1.05851 1.35409 1.24024 1.42937 1.42974 1.42937H8.57274V5.71437H2.43974L4.07774 4.07637C4.14406 4.01005 4.19666 3.93132 4.23255 3.84467C4.26845 3.75802 4.28692 3.66515 4.28692 3.57137C4.28692 3.47758 4.26845 3.38471 4.23255 3.29806C4.19666 3.21141 4.14406 3.13268 4.07774 3.06637C4.01142 3.00005 3.93269 2.94744 3.84604 2.91155C3.7594 2.87566 3.66653 2.85719 3.57274 2.85719C3.47895 2.85719 3.38608 2.87566 3.29944 2.91155C3.21279 2.94744 3.13406 3.00005 3.06774 3.06637L0.20974 5.92437C0.143401 5.99067 0.0907764 6.0694 0.0548723 6.15605C0.0189682 6.2427 0.000488281 6.33557 0.000488281 6.42937C0.000488281 6.52316 0.0189682 6.61603 0.0548723 6.70268C0.0907764 6.78933 0.143401 6.86806 0.20974 6.93437L3.06674 9.79137C3.13306 9.85768 3.21179 9.91029 3.29844 9.94618C3.38508 9.98207 3.47795 10.0005 3.57174 10.0005C3.66553 10.0005 3.7584 9.98207 3.84504 9.94618C3.93169 9.91029 4.01042 9.85768 4.07674 9.79137C4.14306 9.72505 4.19566 9.64632 4.23155 9.55967C4.26744 9.47302 4.28592 9.38015 4.28592 9.28637C4.28592 9.19258 4.26744 9.09971 4.23155 9.01306C4.19566 8.92641 4.14306 8.84768 4.07674 8.78137L2.43974 7.14337H8.57274C8.95156 7.1431 9.31478 6.99243 9.58255 6.72447C9.85032 6.45651 10.0007 6.09319 10.0007 5.71437V1.42937C10.0007 1.05054 9.85032 0.687225 9.58255 0.419264C9.31478 0.151303 8.95156 0.000631306 8.57274 0.000366211Z" fill="#B1B2B3"/>
</svg>
