<svg width="10" height="12" viewBox="0 0 10 12" fill="none" xmlns="http://www.w3.org/2000/svg">
<g id="icon-delete">
<path id="Vector (Stroke)" fill-rule="evenodd" clip-rule="evenodd" d="M9.5252 1.52156C9.82387 1.56085 10.0342 1.83482 9.99487 2.1335L8.89648 10.4849C8.84832 10.8436 8.60649 11.0974 8.37991 11.2615C8.14404 11.4323 7.84413 11.5662 7.51959 11.6702C6.86645 11.8796 6.01107 12 5.09035 12C4.16991 12 3.31456 11.8802 2.66134 11.6711C2.33676 11.5673 2.03667 11.4334 1.80063 11.2623C1.57358 11.0978 1.3322 10.8436 1.28419 10.4846L1.28401 10.4832L0.189442 2.13327C0.150287 1.83457 0.360687 1.56069 0.659383 1.52153C0.958079 1.48238 1.23196 1.69278 1.27112 1.99148L2.36152 10.3097C2.37187 10.322 2.39482 10.3456 2.44079 10.379C2.54967 10.4579 2.7315 10.5482 2.99384 10.6321C3.51446 10.7987 4.25295 10.9091 5.09035 10.9091C5.92749 10.9091 6.66596 10.7982 7.18665 10.6314C7.44903 10.5473 7.63104 10.4569 7.74009 10.3779C7.78588 10.3448 7.80887 10.3212 7.81931 10.3088L8.91326 1.99124C8.95254 1.69256 9.22651 1.48228 9.5252 1.52156ZM2.35412 10.2998C2.35385 10.2993 2.35413 10.2998 2.35412 10.2998V10.2998Z" fill="#B1B2B3"/>
<path id="Vector (Stroke)_2" fill-rule="evenodd" clip-rule="evenodd" d="M1.27134 2.01236C1.2713 2.01235 1.27141 2.01174 1.2718 2.01052L1.27134 2.01236ZM1.27632 2.00003C1.28693 1.97924 1.31856 1.93248 1.40765 1.86226C1.56015 1.74208 1.81462 1.61 2.1777 1.48897C2.89814 1.24882 3.92812 1.09093 5.09082 1.09093C6.25351 1.09093 7.28349 1.24882 8.00394 1.48897C8.36701 1.61 8.62148 1.74208 8.77398 1.86226C8.86307 1.93248 8.8947 1.97924 8.90531 2.00003C8.8947 2.02082 8.86307 2.06759 8.77398 2.13781C8.62148 2.25799 8.36701 2.39007 8.00394 2.5111C7.28349 2.75125 6.25351 2.90914 5.09082 2.90914C3.92812 2.90914 2.89814 2.75125 2.1777 2.5111C1.81462 2.39007 1.56015 2.25799 1.40765 2.13781C1.31856 2.06759 1.28693 2.02082 1.27632 2.00003ZM8.91029 2.01236C8.91025 2.01236 8.91006 2.01176 8.90983 2.01052L8.91029 2.01236ZM8.90983 1.98955C8.91006 1.98832 8.91025 1.98771 8.91029 1.98771L8.90983 1.98955ZM1.2718 1.98955C1.27141 1.98833 1.2713 1.98772 1.27134 1.98771L1.2718 1.98955ZM1.83272 0.454025C2.69162 0.167723 3.8435 0 5.09082 0C6.33814 0 7.49001 0.167723 8.34892 0.454025C8.77552 0.596226 9.1601 0.777574 9.44923 1.00544C9.73222 1.22845 9.99999 1.56043 9.99999 2.00003C9.99999 2.43964 9.73222 2.77162 9.44923 2.99463C9.1601 3.2225 8.77552 3.40384 8.34892 3.54604C7.49001 3.83235 6.33814 4.00007 5.09082 4.00007C3.8435 4.00007 2.69162 3.83235 1.83272 3.54604C1.40611 3.40384 1.02153 3.2225 0.732399 2.99463C0.449415 2.77162 0.181641 2.43964 0.181641 2.00003C0.181641 1.56043 0.449415 1.22845 0.732399 1.00544C1.02153 0.777574 1.40611 0.596226 1.83272 0.454025Z" fill="#B1B2B3"/>
</g>
</svg>
