<svg width="13" height="12" viewBox="0 0 13 12" fill="none" xmlns="http://www.w3.org/2000/svg">
<path d="M11.8817 1.48892L10.9551 0.369391C10.8631 0.253117 10.7455 0.159562 10.6115 0.0959532C10.4776 0.0323447 10.3307 0.000385337 10.1825 0.00254391H2.18579C2.0376 0.00192788 1.89116 0.0345667 1.75726 0.0980561C1.62337 0.161546 1.50542 0.254268 1.41211 0.369391L0.492493 1.48892C0.293018 1.72581 0.184251 2.02589 0.185621 2.33557V10.6691C0.187992 11.0217 0.329535 11.3592 0.57945 11.6079C0.829365 11.8567 1.16743 11.9968 1.52006 11.9975H10.8532C11.2048 11.9952 11.5413 11.8545 11.7899 11.6058C12.0385 11.3572 12.1793 11.0207 12.1816 10.6691V2.33557C12.185 2.02677 12.0787 1.72679 11.8817 1.48892ZM6.18412 9.66852L2.51965 6.00004H4.85368V4.6696H7.52056V6.00004H9.85259L6.18412 9.66852ZM1.60003 1.33599L2.13981 0.669266H10.1365L10.7632 1.33599H1.60003Z" fill="#B1B2B3"/>
</svg>
