<svg width="10" height="10" viewBox="0 0 10 10" fill="none" xmlns="http://www.w3.org/2000/svg">
<path d="M6.26059 0.624329L0.410587 6.47433C0.337306 6.54033 0.279233 6.62145 0.240385 6.7121C0.201537 6.80274 0.18284 6.90075 0.185587 6.99933V9.24933C0.179613 9.34938 0.194919 9.44956 0.230497 9.54326C0.266075 9.63696 0.321115 9.72206 0.391988 9.79293C0.46286 9.8638 0.547953 9.91884 0.641655 9.95442C0.735356 9.99 0.835537 10.0053 0.935587 9.99933H3.18559C3.28417 10.0021 3.38217 9.98338 3.47282 9.94453C3.56346 9.90568 3.64459 9.84761 3.71059 9.77433L9.56059 3.92433L6.26059 0.624329Z" fill="#B1B2B3"/>
</svg>
