<svg width="14" height="14" viewBox="0 0 14 14" fill="none" xmlns="http://www.w3.org/2000/svg">
<path d="M5.25 0.000526428H0.875C0.35 0.000526428 0 0.350526 0 0.875526V5.25053C0 5.77553 0.35 6.12553 0.875 6.12553H5.25C5.775 6.12553 6.125 5.77553 6.125 5.25053V0.875526C6.125 0.350526 5.775 0.000526428 5.25 0.000526428Z" fill="#B1B2B3"/>
<path d="M13.125 0.000526428H8.75C8.225 0.000526428 7.875 0.350526 7.875 0.875526V5.25053C7.875 5.77553 8.225 6.12553 8.75 6.12553H13.125C13.65 6.12553 14 5.77553 14 5.25053V0.875526C14 0.350526 13.65 0.000526428 13.125 0.000526428Z" fill="#B1B2B3"/>
<path d="M5.25 7.87553H0.875C0.35 7.87553 0 8.22553 0 8.75053V13.1255C0 13.6505 0.35 14.0005 0.875 14.0005H5.25C5.775 14.0005 6.125 13.6505 6.125 13.1255V8.75053C6.125 8.22553 5.775 7.87553 5.25 7.87553Z" fill="#B1B2B3"/>
<path d="M13.125 7.87553H8.75C8.225 7.87553 7.875 8.22553 7.875 8.75053V13.1255C7.875 13.6505 8.225 14.0005 8.75 14.0005H13.125C13.65 14.0005 14 13.6505 14 13.1255V8.75053C14 8.22553 13.65 7.87553 13.125 7.87553Z" fill="#B1B2B3"/>
</svg>
