<svg width="12" height="12" viewBox="0 0 12 12" fill="none" xmlns="http://www.w3.org/2000/svg">
<path d="M9.84844 12.0005H2.15987C1.53443 12.0005 1.02113 11.4993 1.02113 10.8739V1.1381C1.02113 0.512639 1.53443 0.000518799 2.15987 0.000518799H6.67882C6.80222 0.000518799 6.92057 0.0511599 7.00782 0.138434L10.8445 3.97788C10.9318 4.06512 10.9789 4.1843 10.9789 4.30769V10.8739C10.9789 11.4993 10.4739 12.0005 9.84844 12.0005ZM1.9507 1.13809V10.8739C1.9507 10.9862 2.04755 11.0709 2.15987 11.0709H9.84844C9.96076 11.0709 10.0493 10.9862 10.0493 10.8739V5.00052H7.11517C6.48973 5.00052 5.97887 4.49679 5.97887 3.87134V0.930097H2.15987C2.04755 0.930097 1.9507 1.02576 1.9507 1.13809ZM6.90845 1.35974V3.87134C6.90845 3.98367 7.00284 4.07094 7.11517 4.07094H9.62678L6.90845 1.35974Z" fill="#8B8B8B"/>
</svg>
