<svg width="12" height="12" viewBox="0 0 12 12" fill="none" xmlns="http://www.w3.org/2000/svg">
<path d="M4.32452 6.139C4.34058 6.21108 4.33499 6.28629 4.30845 6.3552C4.28191 6.42412 4.2356 6.48367 4.17533 6.52638C4.11506 6.5691 4.04352 6.59309 3.96966 6.59533C3.89581 6.59757 3.82293 6.57797 3.76018 6.53899L2.8046 5.939L1.61187 7.85296C1.54113 7.96648 1.502 8.09683 1.49854 8.23053C1.49508 8.36422 1.52741 8.49642 1.59218 8.61345C1.65695 8.73048 1.75183 8.8281 1.86699 8.89622C1.98216 8.96434 2.11343 9.00049 2.24726 9.00093H3.467C3.50392 9.00093 3.54049 9.0082 3.5746 9.02232C3.60871 9.03644 3.63971 9.05714 3.66582 9.08323C3.69193 9.10932 3.71264 9.1403 3.72677 9.17439C3.7409 9.20848 3.74817 9.24502 3.74817 9.28192V10.2189C3.74817 10.2558 3.7409 10.2923 3.72677 10.3264C3.71264 10.3605 3.69193 10.3915 3.66582 10.4176C3.63971 10.4437 3.60871 10.4644 3.5746 10.4785C3.54049 10.4926 3.50392 10.4999 3.467 10.4999H2.25026C1.84858 10.4995 1.45431 10.3918 1.10831 10.1879C0.762309 9.984 0.477162 9.69135 0.28242 9.34026C0.0876774 8.98917 -0.0095741 8.59242 0.000743307 8.19113C0.0110607 7.78984 0.128572 7.39861 0.341098 7.05798L1.53282 5.15102L0.578243 4.55104C0.51643 4.5111 0.467739 4.45387 0.438229 4.38648C0.40872 4.31908 0.399696 4.24451 0.412281 4.17203C0.424866 4.09955 0.458504 4.03237 0.509008 3.97885C0.559512 3.92534 0.62465 3.88785 0.696315 3.87105L3.28189 3.27107C3.32992 3.25995 3.37967 3.25841 3.42829 3.26651C3.47692 3.27462 3.52347 3.29223 3.56529 3.31832C3.6071 3.34442 3.64337 3.37849 3.672 3.4186C3.70063 3.4587 3.72108 3.50406 3.73216 3.55206L4.32452 6.139ZM6.63593 1.8521L7.60052 3.40107L6.64894 4.00105C6.58613 4.04037 6.53639 4.0974 6.50598 4.16494C6.47556 4.23248 6.46584 4.30751 6.47805 4.38056C6.49025 4.45362 6.52382 4.52142 6.57453 4.57543C6.62525 4.62944 6.69083 4.66723 6.76301 4.68404L9.34858 5.28402C9.39695 5.29555 9.44714 5.29736 9.49621 5.28934C9.54529 5.28132 9.59229 5.26363 9.63446 5.2373C9.67664 5.21097 9.71316 5.17652 9.74189 5.13596C9.77063 5.0954 9.79101 5.04953 9.80186 5.00103L10.4022 2.41709C10.4183 2.34501 10.4127 2.2698 10.3862 2.20089C10.3596 2.13197 10.3133 2.07242 10.253 2.02971C10.1928 1.98699 10.1212 1.963 10.0474 1.96076C9.97351 1.95852 9.90063 1.97812 9.83788 2.0171L8.8833 2.61709L7.9087 1.05712C7.70615 0.733752 7.42468 0.467136 7.09072 0.282314C6.75677 0.0974909 6.38129 0.000526428 5.99954 0.000526428C5.6178 0.000526428 5.24232 0.0974909 4.90836 0.282314C4.5744 0.467136 4.29293 0.733752 4.09038 1.05712L3.66912 1.73111C3.62973 1.79436 3.61708 1.87067 3.63397 1.94324C3.65086 2.01581 3.6959 2.07871 3.75918 2.1181L4.55466 2.61809C4.58598 2.63778 4.62089 2.6511 4.65737 2.65729C4.69385 2.66348 4.7312 2.66241 4.76727 2.65414C4.80334 2.64587 4.83742 2.63057 4.86756 2.60911C4.8977 2.58765 4.9233 2.56046 4.9429 2.52909L5.36415 1.8551C5.43159 1.74753 5.5252 1.65878 5.63626 1.59717C5.74732 1.53556 5.87219 1.50309 5.99921 1.50279C6.12624 1.50249 6.25126 1.53437 6.36261 1.59546C6.47396 1.65655 6.56799 1.74484 6.63593 1.8521ZM11.659 7.05798L11.0126 6.026C10.9931 5.99455 10.9675 5.96727 10.9374 5.94571C10.9073 5.92415 10.8733 5.90875 10.8372 5.90039C10.8011 5.89203 10.7637 5.89087 10.7272 5.89698C10.6907 5.90309 10.6557 5.91635 10.6244 5.936L9.82987 6.43599C9.79848 6.45558 9.77127 6.48117 9.7498 6.51129C9.72833 6.54141 9.71302 6.57547 9.70474 6.61151C9.69647 6.64756 9.6954 6.68488 9.70159 6.72134C9.70778 6.7578 9.72111 6.79268 9.74082 6.82398L10.3872 7.85796C10.4567 7.97138 10.4947 8.10121 10.4976 8.23416C10.5003 8.36712 10.4678 8.49843 10.4032 8.61468C10.3385 8.73093 10.2442 8.82794 10.1297 8.8958C10.0153 8.96367 9.88489 8.99994 9.75183 9.00093H7.50045V7.87596C7.50039 7.80184 7.47835 7.7294 7.43711 7.6678C7.39588 7.60619 7.3373 7.55818 7.26878 7.52982C7.20025 7.50147 7.12486 7.49404 7.05211 7.50848C6.97937 7.52293 6.91254 7.55859 6.86007 7.61096L4.98392 9.48592C4.91366 9.55623 4.87419 9.65154 4.87419 9.75091C4.87419 9.85028 4.91366 9.94559 4.98392 10.0159L6.86007 11.8909C6.91254 11.9432 6.97937 11.9789 7.05211 11.9933C7.12486 12.0078 7.20025 12.0004 7.26878 11.972C7.3373 11.9436 7.39588 11.8956 7.43711 11.834C7.47835 11.7724 7.50039 11.7 7.50045 11.6259V10.5009H9.74882C10.1507 10.5006 10.5451 10.3929 10.8912 10.189C11.2374 9.98504 11.5226 9.69226 11.7174 9.34102C11.9122 8.98977 12.0094 8.59284 11.9989 8.1914C11.9885 7.78996 11.8708 7.39863 11.658 7.05798H11.659Z" fill="#B1B2B3"/>
</svg>
