<svg width="7" height="5" viewBox="0 0 7 5" fill="none" xmlns="http://www.w3.org/2000/svg">
<path d="M3.50279 2.80093L6.14777 0.146615C6.19402 0.0999154 6.24908 0.0628451 6.30975 0.0375463C6.37042 0.0122475 6.4355 -0.000778198 6.50123 -0.000778198C6.56696 -0.000778198 6.63204 0.0122475 6.69271 0.0375463C6.75338 0.0628451 6.80844 0.0999154 6.85469 0.146615C6.9478 0.240968 7 0.368191 7 0.500746C7 0.633301 6.9478 0.760524 6.85469 0.854877L3.85625 3.85599C3.76532 3.94677 3.64287 3.99897 3.5144 4.0017C3.38594 4.00444 3.26137 3.95749 3.16666 3.87066L0.146882 0.857545C0.0529604 0.7638 0.000125408 0.636585 4.76837e-07 0.503885C-0.000124454 0.371186 0.0524702 0.243871 0.146214 0.14995C0.239959 0.0560285 0.367175 0.00319382 0.499874 0.00306875C0.632574 0.00294368 0.759889 0.0555385 0.85381 0.149283L3.50279 2.80093Z" fill="#8B8B8B"/>
</svg>
