<svg width="12" height="12" viewBox="0 0 12 12" fill="none" xmlns="http://www.w3.org/2000/svg">
<path d="M11.5 2.50052H5.809L4.947 0.777519C4.90557 0.694385 4.84181 0.624434 4.76286 0.575508C4.6839 0.526581 4.59288 0.500615 4.5 0.500519H0.5C0.367392 0.500519 0.240215 0.553197 0.146447 0.646965C0.0526784 0.740734 0 0.867911 0 1.00052L0 9.50052C0 10.031 0.210714 10.5397 0.585786 10.9147C0.960859 11.2898 1.46957 11.5005 2 11.5005H10C10.5304 11.5005 11.0391 11.2898 11.4142 10.9147C11.7893 10.5397 12 10.031 12 9.50052V3.00052C12 2.86791 11.9473 2.74073 11.8536 2.64697C11.7598 2.5532 11.6326 2.50052 11.5 2.50052Z" fill="#8B8B8B"/>
</svg>
