<svg width="10" height="12" viewBox="0 0 10 12" fill="none" xmlns="http://www.w3.org/2000/svg">
<rect width="10" height="12" fill="#1E1E1E"/>
<g id="home" clip-path="url(#clip0_0_1)">
<rect width="1440" height="768" transform="translate(-324 -43)" fill="black"/>
<g id="document-tab">
<mask id="path-1-inside-1_0_1" fill="white">
<path d="M-324 -12.9995H1116V21.0005H-324V-12.9995Z"/>
</mask>
<path d="M-324 -12.9995H1116V21.0005H-324V-12.9995Z" fill="#151515"/>
<g id="tabs-main">
<g id="tabs-wrapper">
<g id="tab">
<g id="icon-page">
<g id="paper">
<path id="Vector" d="M8.85252 12.0005H1.16395C0.53851 12.0005 0.0252075 11.4994 0.0252075 10.8739V1.1381C0.0252075 0.512647 0.53851 0.000526428 1.16395 0.000526428H5.6829C5.80631 0.000526428 5.92465 0.0511675 6.0119 0.138442L9.8486 3.97789C9.93585 4.06513 9.98295 4.18431 9.98295 4.3077V10.8739C9.98295 11.4994 9.47797 12.0005 8.85252 12.0005ZM0.954785 1.1381V10.8739C0.954785 10.9863 1.05163 11.0709 1.16395 11.0709H8.85252C8.96484 11.0709 9.05337 10.9863 9.05337 10.8739V5.00053H6.11925C5.49381 5.00053 4.98295 4.4968 4.98295 3.87134V0.930104H1.16395C1.05163 0.930104 0.954785 1.02577 0.954785 1.1381ZM5.91253 1.35975V3.87134C5.91253 3.98367 6.00692 4.07095 6.11925 4.07095H8.63086L5.91253 1.35975Z" fill="#8B8B8B"/>
</g>
</g>
</g>
</g>
</g>
<path d="M1116 20.0005H-324V22.0005H1116V20.0005Z" fill="#2F3741" mask="url(#path-1-inside-1_0_1)"/>
</g>
</g>
<defs>
<clipPath id="clip0_0_1">
<rect width="1440" height="768" fill="white" transform="translate(-324 -43)"/>
</clipPath>
</defs>
</svg>
