<svg width="12" height="11" viewBox="0 0 12 11" fill="none" xmlns="http://www.w3.org/2000/svg">
<path id="icon-image" d="M0.578667 10.5005C0.425141 10.5003 0.277956 10.4392 0.169452 10.3306C0.0609479 10.222 -7.78488e-08 10.0748 0 9.92124V0.579738C0.00106753 0.426542 0.0623585 0.279915 0.170633 0.171532C0.278907 0.0631487 0.425472 0.00171016 0.578667 0.000488281H11.088C11.4077 0.000488281 11.6667 0.260072 11.6667 0.579738V9.92124C11.6656 10.0744 11.6043 10.2211 11.496 10.3294C11.3878 10.4378 11.2412 10.4993 11.088 10.5005H0.578667ZM10.5 7.00049V1.16715H1.16667V9.33382L7 3.50049L10.5 7.00049ZM10.5 8.65015L7 5.15015L2.81633 9.33382H10.5V8.65015ZM3.5 4.66715C3.19058 4.66715 2.89383 4.54424 2.67504 4.32545C2.45625 4.10665 2.33333 3.80991 2.33333 3.50049C2.33333 3.19107 2.45625 2.89432 2.67504 2.67553C2.89383 2.45674 3.19058 2.33382 3.5 2.33382C3.80942 2.33382 4.10616 2.45674 4.32496 2.67553C4.54375 2.89432 4.66667 3.19107 4.66667 3.50049C4.66667 3.80991 4.54375 4.10665 4.32496 4.32545C4.10616 4.54424 3.80942 4.66715 3.5 4.66715Z" fill="#B1B2B3"/>
</svg>
