<svg width="12" height="12" viewBox="0 0 12 12" fill="none" xmlns="http://www.w3.org/2000/svg">
<g id="Group 4445">
<path id="Path 623" d="M11.5 2.5H5.809L4.947 0.777C4.90557 0.693866 4.84181 0.623915 4.76286 0.574989C4.6839 0.526063 4.59288 0.500096 4.5 0.5H0.5C0.367392 0.5 0.240215 0.552678 0.146447 0.646447C0.0526784 0.740215 0 0.867392 0 1L0 9.5C0 10.0304 0.210714 10.5391 0.585786 10.9142C0.960859 11.2893 1.46957 11.5 2 11.5H10C10.5304 11.5 11.0391 11.2893 11.4142 10.9142C11.7893 10.5391 12 10.0304 12 9.5V3C12 2.86739 11.9473 2.74021 11.8536 2.64645C11.7598 2.55268 11.6326 2.5 11.5 2.5Z" fill="#8B8B8B"/>
</g>
</svg>
