<svg width="14" height="14" viewBox="0 0 14 14" fill="none" xmlns="http://www.w3.org/2000/svg">
<path d="M14 0.875526H5.25V2.62553H14V0.875526Z" fill="#B1B2B3"/>
<path d="M14 6.12553H5.25V7.87553H14V6.12553Z" fill="#B1B2B3"/>
<path d="M14 11.3755H5.25V13.1255H14V11.3755Z" fill="#B1B2B3"/>
<path d="M2.625 0.000526428H0.875C0.35 0.000526428 0 0.350526 0 0.875526V2.62553C0 3.15053 0.35 3.50053 0.875 3.50053H2.625C3.15 3.50053 3.5 3.15053 3.5 2.62553V0.875526C3.5 0.350526 3.15 0.000526428 2.625 0.000526428Z" fill="#B1B2B3"/>
<path d="M2.625 5.25053H0.875C0.35 5.25053 0 5.60053 0 6.12553V7.87553C0 8.40053 0.35 8.75053 0.875 8.75053H2.625C3.15 8.75053 3.5 8.40053 3.5 7.87553V6.12553C3.5 5.60053 3.15 5.25053 2.625 5.25053Z" fill="#B1B2B3"/>
<path d="M2.625 10.5005H0.875C0.35 10.5005 0 10.8505 0 11.3755V13.1255C0 13.6505 0.35 14.0005 0.875 14.0005H2.625C3.15 14.0005 3.5 13.6505 3.5 13.1255V11.3755C3.5 10.8505 3.15 10.5005 2.625 10.5005Z" fill="#B1B2B3"/>
</svg>
