<svg width="15" height="14" viewBox="0 0 15 14" fill="none" xmlns="http://www.w3.org/2000/svg">
<path fill-rule="evenodd" clip-rule="evenodd" d="M9.3629 8.79937H10.0029L14.0039 12.8004L12.8037 14.0005L8.80274 9.99953V9.35954L8.56186 9.11866C7.63922 9.94818 6.44157 10.4058 5.20086 10.4028C4.17228 10.4028 3.1668 10.0979 2.31154 9.52649C1.45627 8.9551 0.789625 8.14296 0.39588 7.19273C0.00213403 6.24251 -0.10103 5.19687 0.0994313 4.18802C0.299892 3.17917 0.794977 2.25241 1.52209 1.5249C2.24921 0.797397 3.1757 0.301813 4.18444 0.100809C5.19319 -0.100195 6.23888 0.00240604 7.18931 0.39564C8.13975 0.788874 8.95225 1.45508 9.5241 2.31004C10.0959 3.165 10.4015 4.17031 10.402 5.19889C10.405 6.4396 9.94735 7.63725 9.11783 8.5599L9.3629 8.79937ZM5.20086 1.59701C4.37178 1.60063 3.56956 1.89137 2.93069 2.41978C2.29181 2.9482 1.85574 3.68163 1.69667 4.49531C1.53759 5.30899 1.66533 6.15266 2.05817 6.88277C2.451 7.61288 3.08465 8.18435 3.85132 8.49994C4.61799 8.81552 5.47032 8.85575 6.26331 8.61376C7.05629 8.37177 7.74094 7.86252 8.20078 7.17264C8.66063 6.48277 8.86725 5.65488 8.78551 4.82984C8.70376 4.00479 8.3387 3.23355 7.75242 2.64732C7.41702 2.31314 7.01903 2.04837 6.5812 1.86814C6.14338 1.68792 5.67432 1.59579 5.20086 1.59701Z" fill="#B1B2B3"/>
</svg>
