<svg width="15" height="14" viewBox="0 0 15 14" fill="none" xmlns="http://www.w3.org/2000/svg">
<path d="M13.6726 6.13836L12.0976 5.74403C11.9707 5.23101 11.7669 4.74013 11.4932 4.28803L12.3297 2.89386C12.38 2.81026 12.4008 2.71227 12.389 2.61546C12.3771 2.51865 12.3333 2.42857 12.2644 2.35953L11.6426 1.74119C11.5735 1.6723 11.4835 1.62846 11.3866 1.61662C11.2898 1.60478 11.1918 1.62563 11.1082 1.67586L9.71757 2.51236C9.26549 2.23865 8.7746 2.0349 8.26157 1.90803L7.86607 0.33186C7.84239 0.237176 7.78772 0.153132 7.71077 0.0930934C7.63382 0.0330554 7.53901 0.000472143 7.44141 0.000526496H6.56641C6.46881 0.000472143 6.37399 0.0330554 6.29704 0.0930934C6.22009 0.153132 6.16542 0.237176 6.14174 0.33186L5.74741 1.90686C5.23439 2.03377 4.74351 2.23752 4.29141 2.51119L2.89724 1.67586C2.81364 1.62563 2.71565 1.60478 2.61884 1.61662C2.52202 1.62846 2.43195 1.6723 2.36291 1.74119L1.74457 2.36303C1.67568 2.43207 1.63184 2.52214 1.62 2.61896C1.60816 2.71577 1.62901 2.81376 1.67924 2.89736L2.51574 4.28803C2.24203 4.74011 2.03828 5.231 1.91141 5.74403L0.336406 6.13836C0.241506 6.16182 0.157198 6.21639 0.0969328 6.29336C0.0366672 6.37033 0.0039167 6.46527 0.00390632 6.56303V7.43803C0.00385196 7.53563 0.0364352 7.63044 0.0964733 7.70739C0.156511 7.78434 0.240556 7.83901 0.33524 7.86269L1.91024 8.25703C2.03715 8.77004 2.2409 9.26092 2.51457 9.71303L1.67807 11.1072C1.62785 11.1908 1.60699 11.2888 1.61883 11.3856C1.63067 11.4824 1.67452 11.5725 1.74341 11.6415L2.36174 12.2599C2.43078 12.3288 2.52086 12.3726 2.61767 12.3844C2.71448 12.3963 2.81247 12.3754 2.89607 12.3252L4.29024 11.4887C4.74233 11.7624 5.23321 11.9661 5.74624 12.093L6.14057 13.668C6.16408 13.7631 6.21883 13.8476 6.29603 13.9079C6.37324 13.9681 6.46845 14.0008 6.56641 14.0005H7.44141C7.53901 14.0006 7.63382 13.968 7.71077 13.908C7.78772 13.8479 7.84239 13.7639 7.86607 13.6692L8.26041 12.0942C8.77337 11.9677 9.26425 11.7643 9.71641 11.491L11.1106 12.3275C11.1942 12.3778 11.2922 12.3986 11.389 12.3868C11.4858 12.3749 11.5759 12.3311 11.6449 12.2622L12.2632 11.6439C12.3321 11.5748 12.376 11.4847 12.3878 11.3879C12.3997 11.2911 12.3788 11.1931 12.3286 11.1095L11.4921 9.70953C11.7658 9.25744 11.9695 8.76655 12.0964 8.25353L13.6714 7.85919C13.7657 7.83588 13.8496 7.78183 13.9098 7.70557C13.97 7.62931 14.0031 7.53518 14.0039 7.43803V6.56303C14.004 6.46543 13.9714 6.37061 13.9113 6.29366C13.8513 6.21671 13.7673 6.16204 13.6726 6.13836ZM7.00391 9.62553C6.48473 9.62553 5.97721 9.47157 5.54553 9.18313C5.11386 8.8947 4.7774 8.48473 4.57872 8.00507C4.38004 7.52541 4.32806 6.99761 4.42934 6.48841C4.53063 5.97921 4.78064 5.51148 5.14775 5.14437C5.51486 4.77726 5.98259 4.52725 6.49179 4.42596C7.00099 4.32468 7.52879 4.37666 8.00845 4.57534C8.48811 4.77402 8.89808 5.11048 9.18651 5.54215C9.47495 5.97383 9.62891 6.48135 9.62891 7.00053C9.62891 7.69672 9.35234 8.3644 8.86006 8.85668C8.36778 9.34896 7.7001 9.62553 7.00391 9.62553Z" fill="#B1B2B3"/>
</svg>
